# xmcd
#
# Track frame offsets: 
#        225
#        18295
#        33956
#        50849
#        67846
#        84321
#        102132
#        123190
#        140692
#        161113
#        178037
#
# Disc length: 2580 seconds
#
# Revision: 4
# Processed by: cddbd v1.4PL0 Copyright (c) Steve Scherf et al.
# Submitted via: ExactAudioCopy v0.95a3
#
DISCID=8b0a110b
DTITLE=MARSYAS - V pritmi
DYEAR=1986
DGENRE=Folk/Rock
TTITLE0=Daruju
TTITLE1=Vdej se
TTITLE2=Velkomesto
TTITLE3=Zrzava mici
TTITLE4=Ten muz
TTITLE5=Jsem jedna z tvych zen
TTITLE6=Sam vi lip
TTITLE7=Dnes vecer me vynech
TTITLE8=S Luisem
TTITLE9=(bonus) Velkomesto
TTITLE10=(bonus) Zitra ti reknu
EXTD=Original - Digitally Remastered 1996
EXTT0=
EXTT1=
EXTT2=
EXTT3=
EXTT4=
EXTT5=
EXTT6=
EXTT7=
EXTT8=
EXTT9=
EXTT10=
PLAYORDER=
